<svg width="50" height="50" viewBox="0 0 50 50" fill="none" xmlns="http://www.w3.org/2000/svg">
<g clip-path="url(#clip0_7_24446)">
<rect width="50" height="50" fill="white"/>
<rect width="50" height="50" fill="#57068C"/>
<mask id="mask0_7_24446" style="mask-type:luminance" maskUnits="userSpaceOnUse" x="5" y="3" width="40" height="45">
<path d="M5 3H45V47.9099H5V3Z" fill="white"/>
</mask>
<g mask="url(#mask0_7_24446)">
<path d="M4.99531 44.8703C7.01427 43.2318 9.06952 41.6915 11.1166 40.1653L17.2285 35.6276C21.2711 32.6243 25.2739 29.6456 28.97 26.5335C29.8958 25.7622 30.7947 24.9745 31.6585 24.1739C32.5269 23.3827 33.3743 22.5904 34.1538 21.7758C34.9391 20.9647 35.6554 20.1372 36.3109 19.3366C36.9522 18.5314 37.5094 17.7214 37.8909 16.9817C38.0829 16.6119 38.2315 16.2631 38.3497 15.9588C38.4632 15.6533 38.5265 15.3865 38.5522 15.1805C38.5768 14.9733 38.5686 14.8282 38.5487 14.7252C38.5194 14.621 38.4984 14.5567 38.4293 14.4092C38.3989 14.3413 38.3544 14.2523 38.3064 14.1587C38.2526 14.0639 38.1917 13.9586 38.1145 13.8439C37.9623 13.618 37.7575 13.3628 37.5117 13.1018C37.0248 12.5693 36.3706 12.0192 35.6367 11.5171C34.904 11.0091 34.0859 10.555 33.2502 10.1781C32.4204 9.79425 31.5566 9.50633 30.7982 9.32257C30.4225 9.23245 30.0726 9.17276 29.8045 9.14818C29.6711 9.13531 29.5611 9.13062 29.4827 9.12711C29.4066 9.1236 29.3703 9.12711 29.3879 9.11541C29.4066 9.10136 29.485 9.07679 29.6325 8.99486C29.7776 8.91878 30.0035 8.76663 30.2224 8.54776C30.3265 8.4354 30.4225 8.33006 30.4963 8.2177C30.5337 8.16855 30.5653 8.11471 30.5934 8.05853C30.6203 8.01405 30.6437 7.96958 30.6625 7.92159C30.7397 7.75773 30.7526 7.64303 30.7479 7.61494C30.7327 7.55642 30.8427 7.71911 30.6461 8.06321C30.625 8.37454 30.6367 8.78535 30.6812 9.23596C30.776 10.1372 30.9539 11.1999 31.2067 12.2755C31.3319 12.8163 31.4771 13.3663 31.6316 13.9211C31.786 14.4771 31.9593 15.0342 32.1243 15.6018C32.459 16.736 32.8371 17.8795 33.2362 19.0253C33.6447 20.1676 34.0391 21.3333 34.4686 22.4897L35.7772 25.9764L36.449 27.7273C36.6749 28.3102 36.9078 28.893 37.129 29.4817C37.5737 30.658 38.0419 31.8273 38.4984 33.007L39.8713 36.5557C40.3195 37.7472 40.7889 38.9305 41.2289 40.1325C42.1266 42.5272 43.0173 44.9382 43.8155 47.4148L43.8378 47.4803C43.8905 47.6442 43.8003 47.8186 43.6376 47.8724C43.4984 47.9157 43.3497 47.8584 43.2772 47.739C37.974 39.0967 32.7973 30.3467 28.606 21.0548C27.5726 18.7268 26.6046 16.3603 25.8521 13.9001C25.4799 12.67 25.1498 11.4199 24.9462 10.1266C24.8443 9.48058 24.7729 8.82515 24.7589 8.1545C24.7507 7.48503 24.7952 6.79799 24.9684 6.10979C25.0562 5.76686 25.1838 5.42393 25.3558 5.09153C25.5255 4.76031 25.7608 4.44898 26.0358 4.18212C26.5953 3.64022 27.3034 3.33943 27.9869 3.17674C28.6774 3.01171 29.3656 2.97777 30.0386 3.00001C30.7116 3.02459 31.3729 3.11354 32.0213 3.24111C33.3158 3.50211 34.5623 3.91761 35.7608 4.43727C36.9569 4.95928 38.1063 5.58779 39.1889 6.32398C40.2669 7.06602 41.2804 7.91574 42.1688 8.90239C43.0513 9.89022 43.8214 11.0232 44.2802 12.32C44.5131 12.9637 44.6524 13.6519 44.6969 14.3425C44.7378 15.033 44.6746 15.7247 44.5389 16.3907C44.2626 17.7273 43.6938 18.9539 43.0138 20.0763C42.3303 21.2011 41.5215 22.2264 40.6648 23.1955C39.801 24.1587 38.8846 25.0646 37.9331 25.9249C36.0311 27.6501 33.9958 29.202 31.9089 30.6674C27.7271 33.5876 23.3392 36.173 18.8823 38.6075C14.4125 41.0197 9.86188 43.2715 5.2727 45.431C5.11703 45.5035 4.93211 45.438 4.85954 45.2811C4.79634 45.1489 4.83497 44.9956 4.94381 44.9078L4.99531 44.8703Z" fill="white"/>
</g>
</g>
<defs>
<clipPath id="clip0_7_24446">
<rect width="50" height="50" fill="white"/>
</clipPath>
</defs>
</svg>
